<svg xmlns="http://www.w3.org/2000/svg" width="132" height="24" viewBox="0 0 132 24"><g fill="none" fill-rule="evenodd"><path fill="#FFF" d="M21.42 1.16h.97l4.857 15.334h.061L32.226 1.16h4.948l-7.24 21.81h-5.406L18.777 5.191H4.796v4.673h12.231v3.727H4.796v5.345h14.522v4.032H0V1.16h21.42zm20.488 10.996c0 .916.118 1.807.352 2.673a6.919 6.919 0 0 0 1.123 2.337c.513.692 1.183 1.247 2.01 1.664.826.418 1.831.626 3.015.626 1.184 0 2.19-.208 3.016-.626a5.6 5.6 0 0 0 2.01-1.664 6.919 6.919 0 0 0 1.122-2.337 10.16 10.16 0 0 0 .352-2.673c0-.957-.117-1.884-.352-2.78a7.038 7.038 0 0 0-1.122-2.397 5.534 5.534 0 0 0-2.01-1.68c-.827-.418-1.832-.627-3.016-.627s-2.189.209-3.015.627a5.534 5.534 0 0 0-2.01 1.68 7.038 7.038 0 0 0-1.123 2.397 10.932 10.932 0 0 0-.352 2.78zm-5.26 0c0-1.63.268-3.141.804-4.536a10.711 10.711 0 0 1 2.312-3.65c1.005-1.039 2.24-1.853 3.702-2.444C44.93.936 46.576.64 48.408.64c1.854 0 3.507.296 4.959.886 1.452.59 2.68 1.405 3.686 2.444a10.711 10.711 0 0 1 2.311 3.65c.536 1.395.804 2.907.804 4.536 0 1.588-.268 3.07-.804 4.444a10.454 10.454 0 0 1-2.311 3.59c-1.006 1.018-2.234 1.817-3.686 2.397-1.452.58-3.105.871-4.959.871-1.831 0-3.479-.29-4.942-.87-1.463-.58-2.697-1.38-3.702-2.398a10.454 10.454 0 0 1-2.312-3.59c-.536-1.374-.804-2.856-.804-4.444zM62.802 1.16h4.796v17.777h10.63v4.032H62.802V1.16zm36.625 13.562c0 2.953-.825 5.147-2.475 6.583-1.65 1.435-3.93 2.153-6.842 2.153-2.953 0-5.238-.713-6.857-2.138-1.62-1.426-2.429-3.625-2.429-6.598V1.16h4.796v13.562c0 .59.05 1.17.153 1.741.101.57.315 1.074.641 1.512.326.438.779.794 1.36 1.07.58.274 1.359.411 2.336.411 1.71 0 2.892-.381 3.543-1.145.652-.764.978-1.96.978-3.59V1.16h4.796v13.562zm9.179-2.696L101.58 1.64h5.56l4.276 6.965 4.43-6.965h5.253l-6.995 10.416 7.606 11.394h-5.712l-4.765-7.545-4.857 7.545H101l7.606-11.424z"/><path fill="#FDCA38" d="M127.182.686C130.06 2.92 132 7.15 132 12c0 4.919-1.996 9.2-4.94 11.408l-7.546-11.303L127.182.686z"/></g></svg>